<svg xmlns="http://www.w3.org/2000/svg" viewBox="0 0 24 24" ><title>Antenna</title><path d="M12.5 8c1.15 0 2.083.895 2.083 2 0 .74-.418 1.386-1.04 1.732L13.542 22h-2.084V11.732A1.987 1.987 0 0 1 10.417 10c0-1.105.932-2 2.083-2ZM6.631 2.327c.35.374.37.951.017 1.325-3.035 3.177-3.299 8.003-.626 11.468a.965.965 0 0 1-.154 1.323c-.46.397-1.182.332-1.549-.149-3.18-4.142-2.938-9.841.538-13.724l.217-.236.094-.088c.425-.352 1.08-.328 1.463.081Zm13.283-.08.094.087c3.681 3.886 4 9.733.755 13.96-.367.481-1.09.546-1.549.15a.965.965 0 0 1-.153-1.324c2.672-3.465 2.408-8.29-.627-11.468-.354-.374-.333-.951.017-1.325.384-.409 1.038-.433 1.463-.08ZM9.801 5.344c.346.368.353.92.025 1.312a4.911 4.911 0 0 0-.319 5.827.98.98 0 0 1-.168 1.302c-.477.413-1.234.332-1.586-.18a6.846 6.846 0 0 1 .27-8.016l.181-.225.085-.09c.415-.389 1.111-.358 1.512.07Zm6.993-.07.084.09a6.85 6.85 0 0 1 .451 8.24c-.352.513-1.108.594-1.586.18a.98.98 0 0 1-.168-1.301 4.911 4.911 0 0 0-.32-5.827.979.979 0 0 1 .026-1.312c.401-.428 1.097-.459 1.513-.07Z"></path><metadata>communication, connection, global status bar, gsb, header, monitoring, signal, tower, transmission, wifi, wireless</metadata></svg>